<?xml version="1.0" encoding="utf-8"?>
<!-- Generator: Adobe Illustrator 23.0.2, SVG Export Plug-In . SVG Version: 6.00 Build 0)  -->
<svg version="1.1" id="Layer_1" xmlns="http://www.w3.org/2000/svg" xmlns:xlink="http://www.w3.org/1999/xlink" x="0px" y="0px"
	 viewBox="0 0 110.6 59.9" style="enable-background:new 0 0 110.6 59.9;" xml:space="preserve">
<style type="text/css">
	.st0{fill:#8ED19C;}
</style>
<g>
	<path class="st0" d="M10.5,59.9c-1.5,0-3,0-4.5,0c-2.6,0.1-5.3-0.2-5.7-3.4c-0.4-3.2-1-6.8,3.2-8.5c3.9-1.6,7.7-3.2,11.5-4.9
		c2.4-1.1,3.5-2.5,1.4-4.9c-4-4.6-3.6-10-2.9-15.5c0.8-6.2,5.1-9.6,11.9-9.4c6.8,0.2,10.7,4,11.3,10.2c0.5,5.7,0.5,11.1-3.8,15.7
		c-0.9,0.9-1.6,2.5-3.2,1.2c-1.3-1.1-0.2-2.2,0.6-3c4.5-4.8,3.1-10.6,2.4-15.9c-0.6-4.6-4.7-4.9-8.6-4.8c-3.7,0.1-6.7,1.4-7.1,5.5
		c-0.5,5.5-1.3,11.1,3,15.8c2.3,2.5,0.9,5-1.7,6.7c-3.5,2.3-7.4,3.9-11.3,5.2c-2.7,0.9-3.9,2.6-3.5,5.2c0.5,2.7,2.9,1.6,4.5,1.7
		c3,0.1,6,0,9,0.1c1.2,0,2.7,0.2,2.6,1.6c-0.1,1.4-1.6,1.5-2.8,1.5C14.9,59.9,12.7,59.9,10.5,59.9z"/>
	<path class="st0" d="M100.1,59.9c-2,0-4,0-6,0c-1.3,0-3.2,0.1-3.2-1.5c-0.1-1.6,1.7-1.7,3.1-1.7c3.2,0,6.3,0,9.5,0
		c1.4,0,3.2,0.4,3.5-1.8c0.3-1.9,0-3.6-2.2-4.5c-4-1.6-8-3.3-11.8-5.3c-3.6-1.8-4.9-4.5-1.9-8c3.7-4.3,3.2-9.5,2.7-14.6
		c-0.5-4.4-3.7-6.3-9.3-5.9c-4.3,0.3-6.6,2.3-6.9,6.8c-0.3,5.2-0.7,10.2,3.1,14.4c0.7,0.8,1.2,1.7,0.1,2.6c-0.8,0.6-1.5,0.1-2.2-0.4
		c-4.4-3.1-6.4-15.3-3.4-21.2c2.4-4.6,8.8-6.8,14.9-5c3.7,1.1,6.3,3.4,6.9,7.2c0.8,5.6,2.1,11.6-2.2,16.6c-2.6,3-1.3,4.7,1.8,5.9
		c2.8,1.1,5.5,2.3,8.3,3.5c5.5,2.2,6.6,4.1,5.6,9.4c-1,4.7-4.7,3.2-7.6,3.5C101.8,60,101,59.9,100.1,59.9z"/>
	<path class="st0" d="M82.3,44.9c-5.2-1.9-10.2-4-15.1-6.5c-2-1.1-4.1-2.5-2-5c5.4-6.3,5.7-13.5,4.7-21.3C69.2,5.4,65.1,1,58,0.2
		c-8.4-1-15.4,2.5-16.6,9.3c-1.3,7.7-3,15.7,3.1,22.5c2.9,3.2,1.7,5.3-1.8,6.8c-5.2,2.2-10.4,4.4-15.6,6.6
		c-5.5,2.3-3.2,7.1-3.2,10.9c0,3.5,3.1,3.7,5.9,3.7c8.5,0,17,0,25.5,0c8.2,0,16.3,0,24.5,0c3.1,0,6.6,0.5,7.3-4
		C88.2,49,87.2,46.7,82.3,44.9z M83.8,54.4c-0.3,3.6-3.1,2.3-5,2.3c-7.8,0.1-15.7,0.1-23.5,0.1c-8,0-16,0-24,0
		c-1.7,0-4.1,0.7-4.1-2.2c0-2.4-1.3-5.3,2.4-6.7c5.1-1.9,10.2-4.1,15.1-6.5c6-3.1,6.7-5.4,2.6-10.8c-4.9-6.6-3.5-13.8-2.5-20.7
		c0.7-5.1,6.1-7.1,13.6-6.2c5.2,0.6,7.7,3.3,8,8.5c0.2,3.1,0.4,6.2,0.9,9.3c0.6,3.5-2.4,6.7-4.3,9.7c-2.7,4.4-2.6,6.7,1.8,9.4
		c4.8,3,10.1,5.2,15.5,6.9C84.3,48.6,84.1,51.3,83.8,54.4z"/>
</g>
</svg>
